<svg width="30" height="32" viewBox="0 0 30 32" fill="none" xmlns="http://www.w3.org/2000/svg">
<path d="M11.012 0.199998H14.4V31H6.92V8.912L0.1 11.772V4.424L11.012 0.199998ZM21.8326 24.18C22.7126 23.3587 23.7979 22.948 25.0886 22.948C26.3792 22.948 27.4499 23.3587 28.3006 24.18C29.1806 24.972 29.6206 25.9987 29.6206 27.26C29.6206 28.5213 29.1806 29.5627 28.3006 30.384C27.4499 31.176 26.3792 31.572 25.0886 31.572C23.7979 31.572 22.7126 31.176 21.8326 30.384C20.9819 29.5627 20.5566 28.5213 20.5566 27.26C20.5566 25.9987 20.9819 24.972 21.8326 24.18Z" fill="white"/>
</svg>
