<svg width="37" height="33" viewBox="0 0 37 33" fill="none" xmlns="http://www.w3.org/2000/svg">
<path d="M20.3654 15.896C21.6854 16.4827 22.7121 17.392 23.4454 18.624C24.1787 19.856 24.5454 21.308 24.5454 22.98C24.5454 26.0013 23.4894 28.3627 21.3774 30.064C19.2654 31.736 16.4201 32.572 12.8414 32.572C9.38006 32.572 6.50539 31.6773 4.21739 29.888C1.95872 28.0693 0.741391 25.4587 0.565391 22.056H8.13339C8.45606 24.344 9.99606 25.488 12.7534 25.488C15.5694 25.488 16.9774 24.4027 16.9774 22.232C16.9774 21.352 16.6987 20.7067 16.1414 20.296C15.5841 19.8853 14.5867 19.68 13.1494 19.68H9.10139V13.168H12.4454C13.5894 13.168 14.4841 13.0067 15.1294 12.684C15.7747 12.332 16.0974 11.7013 16.0974 10.792C16.0974 8.73866 14.8067 7.712 12.2254 7.712C9.99606 7.712 8.70539 8.75333 8.35339 10.836H0.785391C0.990724 7.63867 2.17872 5.14533 4.34939 3.356C6.52006 1.53733 9.21872 0.627997 12.4454 0.627997C15.7601 0.627997 18.4587 1.49333 20.5414 3.224C22.6241 4.95467 23.6654 7.14 23.6654 9.78C23.6654 12.5373 22.5654 14.576 20.3654 15.896ZM29.1197 25.18C29.9997 24.3587 31.085 23.948 32.3757 23.948C33.6663 23.948 34.737 24.3587 35.5877 25.18C36.4677 25.972 36.9077 26.9987 36.9077 28.26C36.9077 29.5213 36.4677 30.5627 35.5877 31.384C34.737 32.176 33.6663 32.572 32.3757 32.572C31.085 32.572 29.9997 32.176 29.1197 31.384C28.269 30.5627 27.8437 29.5213 27.8437 28.26C27.8437 26.9987 28.269 25.972 29.1197 25.18Z" fill="white"/>
</svg>
