<svg width="32" height="32" viewBox="0 0 32 32" fill="none" xmlns="http://www.w3.org/2000/svg">
<path d="M21.3333 5.33337H24C24.7073 5.33337 25.3855 5.61433 25.8856 6.11442C26.3857 6.61452 26.6667 7.2928 26.6667 8.00004V26.6667C26.6667 27.374 26.3857 28.0522 25.8856 28.5523C25.3855 29.0524 24.7073 29.3334 24 29.3334H8.00001C7.29277 29.3334 6.61449 29.0524 6.11439 28.5523C5.61429 28.0522 5.33334 27.374 5.33334 26.6667V8.00004C5.33334 7.2928 5.61429 6.61452 6.11439 6.11442C6.61449 5.61433 7.29277 5.33337 8.00001 5.33337H10.6667" stroke="white" stroke-width="3" stroke-linecap="round" stroke-linejoin="round"/>
<path d="M20 2.66663H12C11.6464 2.66663 11.3072 2.8071 11.0572 3.05715C10.8071 3.3072 10.6667 3.64634 10.6667 3.99996V6.66663C10.6667 7.02025 10.8071 7.35939 11.0572 7.60943C11.3072 7.85948 11.6464 7.99996 12 7.99996H20C20.3536 7.99996 20.6928 7.85948 20.9428 7.60943C21.1928 7.35939 21.3333 7.02025 21.3333 6.66663V3.99996C21.3333 3.64634 21.1928 3.3072 20.9428 3.05715C20.6928 2.8071 20.3536 2.66663 20 2.66663V2.66663Z" stroke="white" stroke-width="3" stroke-linecap="round" stroke-linejoin="round"/>
<path d="M12 17.3333L14.6667 20L20 14.6666" stroke="white" stroke-width="3" stroke-linecap="round" stroke-linejoin="round"/>
</svg>
