<svg width="32" height="32" viewBox="0 0 32 32" fill="none" xmlns="http://www.w3.org/2000/svg">
<path d="M26.6667 8H5.33334C3.86058 8 2.66667 9.19391 2.66667 10.6667V21.3333C2.66667 22.8061 3.86058 24 5.33334 24H26.6667C28.1394 24 29.3333 22.8061 29.3333 21.3333V10.6667C29.3333 9.19391 28.1394 8 26.6667 8Z" stroke="white" stroke-width="3" stroke-linecap="round" stroke-linejoin="round"/>
<path d="M16 18.6668C17.4728 18.6668 18.6667 17.4729 18.6667 16.0002C18.6667 14.5274 17.4728 13.3335 16 13.3335C14.5272 13.3335 13.3333 14.5274 13.3333 16.0002C13.3333 17.4729 14.5272 18.6668 16 18.6668Z" stroke="white" stroke-width="3" stroke-linecap="round" stroke-linejoin="round"/>
<path d="M24 16H24.0133M8 16H8.01333H8Z" stroke="white" stroke-width="3" stroke-linecap="round" stroke-linejoin="round"/>
</svg>
