<svg width="39" height="33" viewBox="0 0 39 33" fill="none" xmlns="http://www.w3.org/2000/svg">
<path d="M13.2398 24.872H24.8118V32H0.963828V26.676L9.98383 18.8C12.9465 16.1893 14.7945 14.4587 15.5278 13.608C16.2905 12.7573 16.6718 11.8773 16.6718 10.968C16.6718 10.088 16.3638 9.34 15.7478 8.724C15.1612 8.07867 14.2225 7.756 12.9318 7.756C10.5265 7.756 9.1625 9.14933 8.83983 11.936H1.31583C1.43316 8.504 2.59183 5.76133 4.79183 3.708C7.02116 1.65466 9.85183 0.627997 13.2838 0.627997C16.6278 0.627997 19.2825 1.596 21.2478 3.532C23.2425 5.468 24.2398 7.82933 24.2398 10.616C24.2398 11.5547 24.0932 12.464 23.7998 13.344C23.5065 14.1947 23.1985 14.928 22.8758 15.544C22.5532 16.1307 21.9372 16.8933 21.0278 17.832C20.1478 18.7413 19.4438 19.4307 18.9158 19.9C18.4172 20.34 17.5078 21.1467 16.1878 22.32L13.3278 24.828L13.2398 24.872ZM30.7212 25.18C31.6012 24.3587 32.6866 23.948 33.9772 23.948C35.2679 23.948 36.3386 24.3587 37.1892 25.18C38.0692 25.972 38.5092 26.9987 38.5092 28.26C38.5092 29.5213 38.0692 30.5627 37.1892 31.384C36.3386 32.176 35.2679 32.572 33.9772 32.572C32.6866 32.572 31.6012 32.176 30.7212 31.384C29.8706 30.5627 29.4452 29.5213 29.4452 28.26C29.4452 26.9987 29.8706 25.972 30.7212 25.18Z" fill="white"/>
</svg>
