<svg width="32" height="32" viewBox="0 0 32 32" fill="none" xmlns="http://www.w3.org/2000/svg">
<path d="M14.6667 2.66663C13.9594 2.66663 13.2811 2.94758 12.781 3.44767C12.2809 3.94777 12 4.62605 12 5.33329V12H5.33332C4.62608 12 3.9478 12.2809 3.4477 12.781C2.94761 13.2811 2.66666 13.9594 2.66666 14.6666V17.3333C2.66666 18.8 3.86666 20 5.33332 20H12V26.6666C12 28.1333 13.2 29.3333 14.6667 29.3333H17.3333C18.0406 29.3333 18.7188 29.0523 19.2189 28.5522C19.719 28.0521 20 27.3739 20 26.6666V20H26.6667C27.3739 20 28.0522 19.719 28.5523 19.2189C29.0524 18.7188 29.3333 18.0405 29.3333 17.3333V14.6666C29.3333 13.9594 29.0524 13.2811 28.5523 12.781C28.0522 12.2809 27.3739 12 26.6667 12H20V5.33329C20 4.62605 19.719 3.94777 19.2189 3.44767C18.7188 2.94758 18.0406 2.66663 17.3333 2.66663H14.6667Z" stroke="white" stroke-width="3" stroke-linecap="round" stroke-linejoin="round"/>
</svg>
