<svg width="785" height="269" viewBox="0 0 785 269" fill="none" xmlns="http://www.w3.org/2000/svg">
<path d="M142.009 92.5054C137.077 92.6466 134.239 94.3227 127.199 95.7236C106.015 99.9394 84.7824 92.3391 86.7796 82.7941C88.454 76.2259 88.8083 75.1797 104.584 76.4045C120.359 77.6292 138.706 66.5991 145.134 61.3894C170.313 38.0825 198.521 33.1805 209.478 33.6429C225.774 34.8837 259.064 46.2867 261.855 81.9717C265.344 126.578 242.789 160.171 231.423 173.885C222.706 184.403 196.989 199.204 189.567 204.306C182.146 209.408 146.457 221.907 133.37 225.823C123.904 228.656 115.678 230.055 110.543 229.62C108.855 229.477 107.839 227.882 106.874 223.439C105.908 218.996 112.728 216.48 116.259 215.777L135.399 209.291C146.62 204.721 169.575 195.274 169.897 192.296C170.262 188.926 166.421 188.786 160.239 192.456C155.294 195.391 135.674 201.93 126.482 204.832C110.228 209.139 85.6416 215.839 74.2285 217.737C68.6747 218.944 62.7024 221.793 61.2061 212.231C60.523 207.866 66.3418 205.234 69.7706 204.36L109.999 192.323C123.618 187.489 151.065 177.001 151.902 173.718C152.949 169.613 145.64 172.558 142.549 174.393C140.077 175.861 112.322 187.311 92.0182 192.547C75.8177 196.724 50.5152 200.325 49.8585 200.157C49.0375 199.948 40.6988 203.505 38.6874 194.248C36.676 184.992 42.1167 185.942 46.3343 184.832C50.552 183.722 53.0148 184.35 60.114 182.225L60.1152 182.225C69.4596 179.429 100.343 170.188 113.317 163.879C123.697 158.832 132.055 155.542 136.805 150.633C143.727 142.343 133.43 147.295 128.482 150.696C114.155 160.595 79.3836 170.09 74.6509 171.506C69.9181 172.922 58.5049 174.82 52.9512 176.027C47.4603 177.22 46.706 174.921 45.0255 169.797L44.9674 169.62C43.5899 165.422 51.1655 162.457 51.1655 162.457C51.1655 162.457 53.7798 161.462 73.7025 154.652C98.6059 146.138 135.197 120.933 139.737 116.844C144.277 112.756 150.781 106.108 152.246 100.362C153.712 94.6151 148.174 92.3288 142.009 92.5054Z" fill="#FFE62E"/>
<path d="M144.172 92.4398C149.104 92.581 166.224 84.6307 141.046 61.3238C115.868 38.0169 87.6594 33.1149 76.7025 33.5773C60.4066 34.8181 27.1171 46.2211 24.3256 81.9061C20.8362 126.512 43.3916 160.106 54.7574 173.82C63.4746 184.338 89.1919 199.138 96.6132 204.24C104.035 209.342 139.723 221.842 152.811 225.758C162.277 228.59 170.503 229.99 175.637 229.555C177.326 229.412 178.342 227.816 179.307 223.373C180.273 218.93 173.452 216.414 169.922 215.712L150.781 209.226C139.561 204.655 116.605 195.208 116.283 192.23C115.919 188.861 119.76 188.72 125.942 192.39C130.887 195.326 150.507 201.864 159.699 204.766C175.952 209.074 200.539 215.773 211.952 217.672C217.506 218.879 223.478 221.727 224.975 212.165C225.658 207.8 219.839 205.169 216.41 204.295L176.182 192.257C162.563 187.424 135.116 176.936 134.279 173.652C133.232 169.547 140.54 172.492 143.631 174.327C146.104 175.795 173.858 187.245 194.162 192.481C210.363 196.659 235.665 200.259 236.322 200.091C237.143 199.882 245.482 203.439 247.493 194.183C249.505 184.927 244.064 185.877 239.846 184.766C235.629 183.656 233.166 184.284 226.067 182.16L226.065 182.159C216.721 179.363 185.838 170.122 172.863 163.813C162.483 158.766 154.125 155.476 149.376 150.567C142.453 142.277 152.751 147.229 157.698 150.631C172.026 160.529 206.797 170.024 211.53 171.44C216.263 172.856 227.676 174.755 233.229 175.962C238.72 177.155 239.475 174.855 241.155 169.731L241.213 169.554C242.591 165.356 235.015 162.391 235.015 162.391C235.015 162.391 232.401 161.397 212.478 154.586C187.575 146.073 150.983 120.867 146.443 116.779C141.904 112.69 135.4 106.043 133.934 100.296C132.469 94.5495 138.006 92.2632 144.172 92.4398Z" fill="#2FA6FF"/>
<path d="M143.207 92.5054C138.275 92.6466 135.437 94.3227 128.397 95.7236C107.213 99.9394 85.9807 92.3391 87.9779 82.7941C89.6522 76.2259 90.0065 75.1797 105.782 76.4045C121.557 77.6292 139.904 66.5991 146.333 61.3894C171.511 38.0825 199.719 33.1805 210.676 33.6429C226.972 34.8837 260.262 46.2867 263.053 81.9717C266.543 126.578 238.432 164.745 234.238 162.349C200.69 156.957 158.755 126.405 144.377 115.022C144.377 115.022 151.979 106.108 153.445 100.362C154.91 94.6151 149.373 92.3288 143.207 92.5054Z" fill="#FFE62E"/>
<path d="M482.395 24.9998H482.079L481.902 25.2611L456.452 62.7968L457.052 48.0288L457.053 48.0167V48.0047V25.5952V24.9998H456.457H445.397H444.802V25.5952V79.183V79.7784H445.397H458.415H458.731L458.908 79.5166L484.358 41.8877L483.757 56.7495L483.757 56.7615V56.7736V79.183V79.7784H484.352H495.412H496.008V79.183V25.5952V24.9998H495.412H482.395Z" fill="#1D2E42" stroke="black" stroke-width="1.19084"/>
<path d="M409.062 24.4046H408.742L408.566 24.6708L373.946 76.8407L339.327 24.6708L339.15 24.4046H338.831H315.595H315V25V147.656V148.252H315.595H335.337H335.932V147.656V53.7984L372.401 109.259L372.577 109.528H372.898H374.82H375.14L375.317 109.26L411.961 53.7907V147.656V148.252H412.556H432.298H432.893V147.656V25V24.4046H432.298H409.062Z" fill="#1D2E42" stroke="black" stroke-width="1.19084"/>
<path d="M451.202 141.183L451.202 141.183L451.207 141.188C456.732 146.69 463.5 149.443 471.474 149.443C479.513 149.443 486.283 146.69 491.744 141.186C497.207 135.679 499.934 128.791 499.934 120.565C499.934 112.336 497.173 105.448 491.645 99.9422C486.185 94.4395 479.448 91.6868 471.474 91.6868C463.563 91.6868 456.828 94.4408 451.305 99.941C445.776 105.447 443.015 112.336 443.015 120.565C443.015 128.727 445.742 135.613 451.202 141.183ZM482.873 108.362L482.873 108.362L482.882 108.37C486.017 111.531 487.597 115.579 487.597 120.565C487.597 125.622 486.046 129.703 482.975 132.862C479.898 136.027 476.078 137.609 471.474 137.609C466.87 137.609 463.05 136.027 459.973 132.862C456.902 129.703 455.351 125.622 455.351 120.565C455.351 115.575 456.901 111.526 459.973 108.366C463.12 105.131 466.941 103.521 471.474 103.521C476.007 103.521 479.794 105.131 482.873 108.362ZM591.081 148.26H592.514L591.503 147.244L563.574 119.191L589.445 93.8905L590.489 92.8694H589.028H574.754H574.505L574.331 93.0463L552.081 115.567V93.4648V92.8694H551.485H540.438H539.842V93.4648V115.567L517.592 93.0463L517.417 92.8694H517.169H502.895H501.434L502.478 93.8905L528.348 119.191L500.419 147.244L499.408 148.26H500.841H515.018H515.262L515.436 148.089L539.842 124.056V147.665V148.26H540.438H551.485H552.081V147.665V124.056L576.487 148.089L576.661 148.26H576.905H591.081ZM604.556 124.215H647.595H648.157L648.19 123.654C648.718 114.527 646.404 106.912 641.206 100.865C636.062 94.7393 629.11 91.6868 620.416 91.6868C612.187 91.6868 605.38 94.4357 600.044 99.9475C594.71 105.392 592.054 112.313 592.054 120.663C592.054 129.014 594.711 135.936 600.046 141.38L600.051 141.385C605.453 146.763 612.323 149.443 620.611 149.443C626.713 149.443 632.14 147.903 636.873 144.813C641.625 141.71 645.024 137.161 647.083 131.205L647.356 130.415H646.52H635.081H634.703L634.542 130.757C633.358 133.27 631.556 135.179 629.126 136.498C626.682 137.825 623.882 138.496 620.709 138.496C616.206 138.496 612.507 137.189 609.568 134.606C606.773 132.087 605.091 128.641 604.556 124.215ZM610.435 105.943L610.436 105.942C613.119 103.679 616.432 102.535 620.416 102.535C624.269 102.535 627.449 103.646 630 105.84L630.005 105.845C632.459 107.906 634.129 110.602 635.009 113.958H605.265C606.258 110.668 607.983 108.003 610.435 105.943ZM703.157 92.8694H702.851L702.672 93.1183L687.222 114.711L671.867 93.1197L671.689 92.8694H671.382H658.379H657.783V93.4648V147.665V148.26H658.379H669.427H670.022V147.665V124.999V124.987L670.022 124.974L669.324 108.193L686.634 133.026L686.812 133.281H687.123H687.416H687.727L687.904 133.026L705.214 108.193L704.517 124.974L704.517 124.987V124.999V147.665V148.26H705.112H716.16H716.755V147.665V93.4648V92.8694H716.16H703.157ZM734.863 141.183L734.869 141.188C740.393 146.69 747.161 149.443 755.136 149.443C763.174 149.443 769.944 146.69 775.405 141.186C780.868 135.679 783.595 128.791 783.595 120.565C783.595 112.337 780.835 105.449 775.308 99.9436C769.847 94.4399 763.11 91.6868 755.136 91.6868C747.225 91.6868 740.49 94.4408 734.966 99.941C729.437 105.447 726.676 112.336 726.676 120.565C726.676 128.727 729.404 135.613 734.863 141.183ZM766.535 108.362L766.543 108.37C769.679 111.531 771.259 115.579 771.259 120.565C771.259 125.622 769.708 129.703 766.637 132.862C763.56 136.027 759.74 137.609 755.136 137.609C750.532 137.609 746.712 136.027 743.635 132.862C740.564 129.703 739.013 125.622 739.013 120.565C739.013 115.575 740.562 111.526 743.635 108.366C746.781 105.131 750.603 103.521 755.136 103.521C759.668 103.521 763.455 105.131 766.535 108.362Z" fill="#1D2E42" stroke="black" stroke-width="1.19084"/>
<path d="M326.052 241.138H326.648V240.542V208.847C331.059 214.775 337.138 217.752 344.831 217.752C352.232 217.752 358.331 215.064 363.078 209.69C367.884 204.258 370.269 197.33 370.269 188.956C370.269 180.647 367.884 173.752 363.078 168.32C358.27 162.886 352.206 160.16 344.929 160.16C337.174 160.16 331.063 163.194 326.648 169.233V161.935V161.34H326.052H315H314.405V161.935V240.542V241.138H315H326.052ZM331.08 176.79L331.08 176.79L331.084 176.786C334.096 173.571 337.881 171.963 342.484 171.963C347.022 171.963 350.706 173.538 353.586 176.683C356.468 179.83 357.928 183.904 357.928 188.956C357.928 194.008 356.468 198.082 353.586 201.229C350.706 204.374 347.022 205.949 342.484 205.949C337.877 205.949 334.091 204.371 331.08 201.22C328.071 198.072 326.55 194.001 326.55 188.956C326.55 183.979 328.069 179.94 331.08 176.79ZM422.659 161.34H422.064V161.935V169.233C417.648 163.194 411.537 160.16 403.782 160.16C396.505 160.16 390.442 162.886 385.633 168.32C380.828 173.752 378.442 180.647 378.442 188.956C378.442 197.328 380.793 204.255 385.533 209.687L385.538 209.693C390.349 215.064 396.479 217.752 403.88 217.752C411.622 217.752 417.702 214.784 422.064 208.866V215.977V216.573H422.659H433.711H434.307V215.977V161.935V161.34H433.711H422.659ZM417.628 176.786L417.632 176.79C420.642 179.94 422.161 183.979 422.161 188.956C422.161 194.001 420.64 198.072 417.632 201.22C414.62 204.371 410.834 205.949 406.227 205.949C401.689 205.949 398.005 204.374 395.125 201.229C392.243 198.082 390.783 194.008 390.783 188.956C390.783 183.904 392.243 179.83 395.125 176.683C398.005 173.538 401.689 171.963 406.227 171.963C410.83 171.963 414.615 173.571 417.628 176.786ZM485.354 187.32C487.235 186.225 488.708 184.866 489.752 183.234C490.996 181.29 491.607 178.996 491.607 176.379C491.607 171.395 489.484 167.417 485.288 164.492C481.113 161.584 475.536 160.16 468.614 160.16C461.432 160.16 455.777 161.681 451.723 164.802C447.691 167.842 445.139 171.966 444.068 177.143L443.92 177.859H444.651H455.899H456.367L456.477 177.404C457.098 174.848 458.386 172.972 460.329 171.721C462.287 170.461 464.965 169.802 468.418 169.802C472.182 169.802 474.899 170.459 476.66 171.685C478.383 172.883 479.266 174.675 479.266 177.165C479.266 179.225 478.525 180.698 477.08 181.685C475.595 182.7 473.292 183.251 470.081 183.251H462.06H461.465V183.847V192.395V192.991H462.06H472.037C475.137 192.991 477.353 193.604 478.784 194.73C480.188 195.835 480.929 197.508 480.929 199.863C480.929 202.584 479.971 204.549 478.101 205.861C476.193 207.199 473.257 207.914 469.2 207.914C464.964 207.914 461.738 207.14 459.459 205.658C457.274 204.13 455.774 201.632 455.014 198.068L454.913 197.597H454.432H443.282H442.565L442.696 198.301C443.892 204.742 446.73 209.631 451.246 212.898C455.75 216.156 461.854 217.752 469.494 217.752C476.675 217.752 482.448 216.297 486.753 213.323L486.758 213.319C491.091 210.258 493.269 206.014 493.269 200.649C493.269 197.408 492.495 194.573 490.925 192.17C489.569 190.04 487.706 188.424 485.354 187.32ZM508.795 209.517L508.801 209.522C514.327 215.007 521.098 217.752 529.075 217.752C537.116 217.752 543.888 215.008 549.351 209.519C554.817 204.029 557.545 197.16 557.545 188.956C557.545 180.751 554.783 173.881 549.252 168.391C543.79 162.905 537.051 160.16 529.075 160.16C521.161 160.16 514.424 162.906 508.898 168.39C503.367 173.881 500.604 180.75 500.604 188.956C500.604 197.096 503.334 203.963 508.795 209.517ZM540.479 176.791L540.487 176.799C543.624 179.951 545.204 183.986 545.204 188.956C545.204 193.998 543.653 198.067 540.581 201.216C537.503 204.371 533.681 205.949 529.075 205.949C524.468 205.949 520.647 204.371 517.569 201.216C514.497 198.067 512.945 193.998 512.945 188.956C512.945 183.982 514.495 179.946 517.569 176.795C520.716 173.57 524.539 171.963 529.075 171.963C533.61 171.963 537.398 173.569 540.479 176.791ZM612.801 161.34H612.495L612.317 161.588L596.86 183.118L581.498 161.589L581.32 161.34H581.014H568.006H567.41V161.935V215.977V216.573H568.006H579.058H579.653V215.977V193.378V193.365L579.653 193.353L578.955 176.621L596.273 201.383L596.45 201.637H596.761H597.054H597.364L597.542 201.383L614.86 176.621L614.162 193.353L614.162 193.365V193.378V215.977V216.573H614.757H625.809H626.405V215.977V161.935V161.34H625.809H612.801Z" fill="#1D2E42" stroke="black" stroke-width="1.19084"/>
</svg>
